<svg width="48" height="48" viewBox="0 0 136 136" fill="none" xmlns="http://www.w3.org/2000/svg">
<circle cx="68" cy="68" r="68" fill="#0064AA"/>
<path d="M96.2923 68.5365C95.4943 86.2927 81.2294 100.957 63.573 102.353C58.5853 102.652 53.7971 102.054 49.2084 100.657C46.914 99.8592 38.0359 104.248 32.8487 106.842C31.6517 107.441 30.0556 106.243 30.6541 104.847C32.5494 99.8592 35.1431 91.9787 33.946 90.4824C27.861 83.5993 24.4694 74.3222 25.0679 64.1473C26.3647 46.4908 41.228 32.1262 58.9843 31.3282C79.9326 30.2309 97.1901 47.5881 96.2923 68.5365Z" fill="#1886D3"/>
<path d="M51.6025 57.1645H69.9573C71.1543 57.1645 72.2516 56.0672 72.2516 54.8701C72.2516 53.6731 71.1543 52.5758 69.9573 52.5758H51.6025C50.4055 52.5758 49.3082 53.6731 49.3082 54.8701C49.1087 56.0672 50.206 57.1645 51.6025 57.1645Z" fill="white"/>
<path d="M69.9572 76.3173H51.6025C50.4054 76.3173 49.3081 77.4146 49.3081 78.6116C49.3081 79.8087 50.4054 80.906 51.6025 80.906H69.9572C71.1543 80.906 72.2516 79.8087 72.2516 78.6116C72.3513 77.4146 71.254 76.3173 69.9572 76.3173Z" fill="white"/>
<path d="M79.3341 64.3468H42.1258C40.9288 64.3468 39.8315 65.4441 39.8315 66.6411C39.8315 67.8382 40.9288 68.9355 42.1258 68.9355H79.1346C80.3316 68.9355 81.4289 67.8382 81.4289 66.6411C81.6284 65.4441 80.5311 64.3468 79.3341 64.3468Z" fill="white"/>
<path d="M68.0235 57.078C68.5829 69.5062 78.5827 79.7699 90.96 80.7474C94.4564 80.9569 97.813 80.538 101.03 79.5605C102.638 79.0019 108.862 82.0741 112.498 83.8894C113.337 84.3083 114.456 83.4705 114.036 82.493C112.708 79.0019 110.89 73.486 111.729 72.4387C115.994 67.621 118.372 61.1276 117.952 54.0058C117.043 41.6474 106.624 31.5931 94.1767 31.0345C79.4918 30.2665 67.3941 42.4154 68.0235 57.078Z" fill="#024B7E"/>
<path d="M85.9028 63.3133C85.7676 63.7231 85.3848 64 84.9532 64H83.4096C82.7207 64 82.2382 63.3198 82.4658 62.6696L87.3672 48.6696C87.5076 48.2685 87.8861 48 88.311 48H91.3129C91.738 48 92.1166 48.2687 92.2569 48.67L97.1513 62.67C97.3786 63.3201 96.896 64 96.2073 64H94.6636C94.2318 64 93.8488 63.7229 93.7137 63.3128L89.8953 51.7165C89.8835 51.6805 89.8499 51.6563 89.8121 51.6563C89.7743 51.6563 89.7407 51.6805 89.7289 51.7164L85.9028 63.3133ZM85.4465 58.7109C85.4465 58.1587 85.8942 57.7109 86.4465 57.7109H93.1302C93.6825 57.7109 94.1302 58.1587 94.1302 58.7109V59.3516C94.1302 59.9038 93.6824 60.3516 93.1302 60.3516H86.4465C85.8942 60.3516 85.4465 59.9038 85.4465 59.3516V58.7109Z" fill="white"/>
<path d="M102 48C102.552 48 103 48.4477 103 49V63C103 63.5523 102.552 64 102 64H100.569C100.017 64 99.5693 63.5523 99.5693 63V49C99.5693 48.4477 100.017 48 100.569 48H102Z" fill="white"/>
<path d="M98.5 88L99.7154 90.9196L103 92L99.7154 93.0804L98.5 96L97.2846 93.0804L94 92L97.2846 90.9196L98.5 88Z" fill="white"/>
<path d="M74 107L75.0804 110.285L78 111.5L75.0804 112.715L74 116L72.9196 112.715L70 111.5L72.9196 110.285L74 107Z" fill="white"/>
<path d="M76 21L77.3505 24.6495L81 26L77.3505 27.3505L76 31L74.6495 27.3505L71 26L74.6495 24.6495L76 21Z" fill="white"/>
<path d="M19 91L21.1897 90.1897L22 88L22.8103 90.1897L25 91L22.8103 91.8103L22 94L21.1897 91.8103L19 91Z" fill="white"/>
<path d="M58.5 15L59.4453 17.1897L62 18L59.4453 18.8103L58.5 21L57.5547 18.8103L55 18L57.5547 17.1897L58.5 15Z" fill="white"/>
<path d="M44 107L45.3505 110.65L49 112L45.3505 113.35L44 117L42.6495 113.35L39 112L42.6495 110.65L44 107Z" fill="white"/>
<path d="M14 80L17.2846 78.9196L18.5 76L19.7154 78.9196L23 80L19.7154 81.0804L18.5 84L17.2846 81.0804L14 80Z" fill="white"/>
<path d="M93.5 103L95.5257 108.109L101 110L95.5257 111.891L93.5 117L91.4743 111.891L86 110L91.4743 108.109L93.5 103Z" fill="white"/>
</svg>
